ModelForces
version=1
nRows=19
nColumns=21
inDegrees=no

This file contains the forces exerted on a model during a simulation.

A force is a generalized force, meaning that it can be either a force (N) or a torque (Nm).

Units are S.I. units (second, meters, Newtons, ...)
Angles are in degrees.

endheader
time	muscle1	muscle2	contactForce.block.force.X	contactForce.block.force.Y	contactForce.block.force.Z	contactForce.block.torque.X	contactForce.block.torque.Y	contactForce.block.torque.Z	contactForce.ground.force.X	contactForce.ground.force.Y	contactForce.ground.force.Z	contactForce.ground.torque.X	contactForce.ground.torque.Y	contactForce.ground.torque.Z	ground_prescribedForce_fx	ground_prescribedForce_fy	ground_prescribedForce_fz	ground_prescribedForce_px	ground_prescribedForce_py	ground_prescribedForce_pz
      0.00000000	    651.35198281	    437.71756055	     -0.27009111	     38.96058459	      0.27009111	     -0.98265679	     -0.01343712	      0.95564519	      0.27009111	    -38.96058459	     -0.27009111	     -0.97401960	      0.01350447	     -2.92203630	      0.00000000	      0.00000000	      0.00000000	      0.00000000	      0.00000000	      0.00000000
      0.00100000	    636.82959563	    443.42133276	     -0.26004590	     38.54335144	      0.26004684	     -0.97162687	     -0.01294329	      0.94591000	      0.26004590	    -38.54335144	     -0.26004684	     -0.96572040	      0.01300748	     -2.89276474	     -0.14709975	      0.00000000	      0.00000000	      0.00002500	      0.00000000	      0.00000000
      0.00304863	    607.14306201	    450.82932474	     -0.23479218	     34.99107066	      0.23481779	     -0.88080802	     -0.01170064	      0.85994704	      0.23479218	    -34.99107066	     -0.23481779	     -0.88189147	      0.01175448	     -2.63047769	     -0.44845286	      0.00000000	      0.00000000	      0.00007622	      0.00000000	      0.00000000
      0.00433906	    588.64927904	    426.66140010	     -0.21501602	     31.02868212	      0.21509063	     -0.77986517	     -0.01072495	      0.76352432	      0.21501602	    -31.02868212	     -0.21509063	     -0.78590906	      0.01077136	     -2.33544991	     -0.63827422	      0.00000000	      0.00000000	      0.00010848	      0.00000000	      0.00000000
      0.00562948	    570.40647266	    448.82738445	     -0.18503357	     25.83134439	      0.18519855	     -0.64717482	     -0.00923786	      0.63705464	      0.18503357	    -25.83134439	     -0.18519855	     -0.65864098	      0.00927669	     -1.94712316	     -0.82809558	      0.00000000	      0.00000000	      0.00014074	      0.00000000	      0.00000000
      0.00695393	    552.74811172	    459.57599656	     -0.15003661	     19.32290856	      0.15036883	     -0.48100863	     -0.00749569	      0.47823419	      0.15003661	    -19.32290856	     -0.15036883	     -0.49794605	      0.00753091	     -1.45955110	     -1.02292126	      0.00000000	      0.00000000	      0.00017385	      0.00000000	      0.00000000
      0.00876315	    531.52696065	    437.46149873	     -0.08012754	      8.74367342	      0.08091087	     -0.20997178	     -0.00399280	      0.21995848	      0.08012754	     -8.74367342	     -0.08091087	     -0.23460727	      0.00403672	     -0.66498015	     -1.28905709	      0.00000000	      0.00000000	      0.00021908	      0.00000000	      0.00000000
      0.01057237	    513.70500709	    462.13571566	     -0.07445444	      3.94746658	      0.07664113	      0.10214681	      0.00363149	     -0.08582650	      0.07445444	     -3.94746658	     -0.07664113	     -0.30528515	     -0.00352294	     -0.11710745	     -1.55519292	      0.00000000	      0.00000000	      0.00026431	      0.00000000	      0.00000000
      0.01198255	    502.26019963	    470.27897857	     -0.40292196	     14.66881906	      0.40723979	      0.35416193	      0.02011352	     -0.36661818	      0.40292196	    -14.66881906	     -0.40723979	     -1.11631355	     -0.01993281	     -0.39396165	     -1.76263039	      0.00000000	      0.00000000	      0.00029956	      0.00000000	      0.00000000
      0.01381600	    490.62064419	    471.47472969	     -1.56237885	     29.74057137	      1.57394542	      0.67167904	      0.07890802	     -0.79560383	      1.56237885	    -29.74057137	     -1.57394542	     -2.25719772	     -0.07861876	     -0.78372907	     -2.03233011	      0.00000000	      0.00000000	      0.00034540	      0.00000000	      0.00000000
      0.01574084	    482.17511604	    476.16927948	     -5.72767334	     46.71435180	      5.76750890	      0.88332455	      0.26941605	     -1.41999739	      5.72767334	    -46.71435180	     -5.76750890	     -3.54273578	     -0.26910571	     -1.22355924	     -2.31547397	      0.00000000	      0.00000000	      0.00039352	      0.00000000	      0.00000000
      0.01766568	    477.29662431	    477.05424367	      1.97411485	     64.66120354	     -1.78403202	      1.70486219	     -0.40140272	     -1.47123722	     -1.97411485	    -64.66120354	      1.78403202	     -4.90263487	      0.41179862	     -1.69045431	     -2.59861783	      0.00000000	      0.00000000	      0.00044164	      0.00000000	      0.00000000
      0.01959053	    475.38382251	    478.34617146	      9.37735124	     83.31298457	     -9.17470561	      2.53165548	     -0.61019358	     -1.55608233	     -9.37735124	    -83.31298457	      9.17470561	     -6.31342966	      0.62537052	     -2.17140383	     -2.88176169	      0.00000000	      0.00000000	      0.00048976	      0.00000000	      0.00000000
      0.02205682	    476.33122277	    478.48691495	      5.10471576	    107.87057756	     -5.06141131	      2.91820817	     -0.27392521	     -2.37868711	     -5.10471576	   -107.87057756	      5.06141131	     -8.16251668	      0.27961209	     -2.78929006	     -3.24455285	      0.00000000	      0.00000000	      0.00055142	      0.00000000	      0.00000000
      0.02452311	    480.55639341	    476.83581465	      2.86499520	    132.90568722	     -2.86385951	      3.40215468	     -0.14726853	     -3.11934353	     -2.86499520	   -132.90568722	      2.86385951	    -10.03773627	      0.14975769	     -3.40335239	     -3.60734400	      0.00000000	      0.00000000	      0.00061308	      0.00000000	      0.00000000
      0.02952903	    496.68163987	    467.32726059	      1.45205485	    185.20826616	     -1.46104337	      4.52217372	     -0.07254645	     -4.49485955	     -1.45205485	   -185.20826616	      1.46104337	    -13.89807246	      0.07381461	     -4.66259935	     -4.34371336	      0.00000000	      0.00000000	      0.00073823	      0.00000000	      0.00000000
      0.03453495	    518.66881594	    454.85374398	      1.04440627	    238.26032407	     -1.05477610	      5.64536791	     -0.05142950	     -5.82759235	     -1.04440627	   -238.26032407	      1.05477610	    -17.73066517	      0.05249861	     -5.89739196	     -5.08008272	      0.00000000	      0.00000000	      0.00086337	      0.00000000	      0.00000000
      0.03848791	    537.76975148	    449.51790041	      0.91235832	    279.63693415	     -0.92411895	      6.49270247	     -0.04456355	     -6.85803883	     -0.91235832	   -279.63693415	      0.92411895	    -20.66163547	      0.04560340	     -6.81591761	     -5.66156233	      0.00000000	      0.00000000	      0.00096220	      0.00000000	      0.00000000
      0.04195852	    554.70652736	    440.84160053	      0.85498326	    315.17624537	     -0.86850811	      7.19579721	     -0.04152013	     -7.74109010	     -0.85498326	   -315.17624537	      0.86850811	    -23.13391582	      0.04256467	     -7.56977353	     -6.17208822	      0.00000000	      0.00000000	      0.00104896	      0.00000000	      0.00000000
